<svg xmlns="http://www.w3.org/2000/svg" version="1.1" xmlns:xlink="http://www.w3.org/1999/xlink" xmlns:svgjs="http://svgjs.com/svgjs" width="1440" height="560" preserveAspectRatio="none" viewBox="0 0 1440 560"><g mask="url(&quot;#SvgjsMask1306&quot;)" fill="none"><rect width="1440" height="560" x="0" y="0" fill="rgba(51, 51, 51, 1)"></rect><g mask="url(&quot;#SvgjsMask1307&quot;)"><path d="M87.5 312.5L112.5 287.5M937.5 337.5L962.5 312.5L987.5 312.5L1012.5 312.5L1037.5 312.5L1062.5 312.5L1087.5 312.5L1112.5 312.5L1137.5 312.5L1162.5 312.5M987.5 337.5L1012.5 362.5L1037.5 362.5M462.5 312.5L487.5 337.5L512.5 337.5L537.5 337.5M562.5 312.5L587.5 287.5M512.5 312.5L537.5 287.5L562.5 287.5L587.5 262.5L612.5 262.5L637.5 262.5L662.5 262.5L687.5 262.5M1112.5 337.5L1137.5 362.5L1162.5 362.5M262.5 312.5L287.5 337.5L312.5 337.5M787.5 337.5L812.5 362.5L837.5 387.5M712.5 337.5L737.5 312.5M587.5 312.5L612.5 312.5L637.5 312.5L662.5 312.5L687.5 312.5L712.5 312.5M137.5 312.5L162.5 287.5L187.5 287.5L212.5 287.5L237.5 287.5L262.5 287.5L287.5 287.5L312.5 287.5M-12.5 287.5L12.5 312.5L37.5 312.5L62.5 312.5L87.5 312.5L112.5 312.5L137.5 312.5L162.5 337.5L187.5 337.5L212.5 337.5L237.5 337.5L262.5 312.5L287.5 312.5L312.5 312.5L337.5 312.5L362.5 312.5L387.5 312.5L412.5 312.5L437.5 312.5L462.5 312.5L487.5 312.5L512.5 312.5L537.5 312.5L562.5 312.5L587.5 312.5L612.5 337.5L637.5 337.5L662.5 337.5L687.5 337.5L712.5 337.5L737.5 337.5L762.5 337.5L787.5 337.5L812.5 337.5L837.5 337.5L862.5 337.5L887.5 337.5L912.5 337.5L937.5 337.5L962.5 337.5L987.5 337.5L1012.5 337.5L1037.5 337.5L1062.5 337.5L1087.5 337.5L1112.5 337.5L1137.5 337.5L1162.5 337.5L1187.5 337.5L1212.5 362.5L1237.5 387.5" stroke="#3a7cc3" stroke-width="4.17"></path><path d="M1231.25 387.5 a6.25 6.25 0 1 0 12.5 0 a6.25 6.25 0 1 0 -12.5 0zM106.25 287.5 a6.25 6.25 0 1 0 12.5 0 a6.25 6.25 0 1 0 -12.5 0zM1156.25 312.5 a6.25 6.25 0 1 0 12.5 0 a6.25 6.25 0 1 0 -12.5 0zM1031.25 362.5 a6.25 6.25 0 1 0 12.5 0 a6.25 6.25 0 1 0 -12.5 0zM531.25 337.5 a6.25 6.25 0 1 0 12.5 0 a6.25 6.25 0 1 0 -12.5 0zM581.25 287.5 a6.25 6.25 0 1 0 12.5 0 a6.25 6.25 0 1 0 -12.5 0zM681.25 262.5 a6.25 6.25 0 1 0 12.5 0 a6.25 6.25 0 1 0 -12.5 0zM1156.25 362.5 a6.25 6.25 0 1 0 12.5 0 a6.25 6.25 0 1 0 -12.5 0zM306.25 337.5 a6.25 6.25 0 1 0 12.5 0 a6.25 6.25 0 1 0 -12.5 0zM831.25 387.5 a6.25 6.25 0 1 0 12.5 0 a6.25 6.25 0 1 0 -12.5 0zM731.25 312.5 a6.25 6.25 0 1 0 12.5 0 a6.25 6.25 0 1 0 -12.5 0zM706.25 312.5 a6.25 6.25 0 1 0 12.5 0 a6.25 6.25 0 1 0 -12.5 0zM306.25 287.5 a6.25 6.25 0 1 0 12.5 0 a6.25 6.25 0 1 0 -12.5 0z" fill="#3a7cc3"></path><path d="M937.5 237.5L962.5 262.5L987.5 262.5L1012.5 262.5L1037.5 262.5L1062.5 262.5L1087.5 262.5L1112.5 262.5L1137.5 262.5L1162.5 262.5L1187.5 262.5L1212.5 237.5L1237.5 237.5L1262.5 237.5L1287.5 237.5L1312.5 237.5L1337.5 237.5M1112.5 237.5L1137.5 212.5L1162.5 187.5L1187.5 187.5L1212.5 187.5L1237.5 187.5L1262.5 187.5M737.5 237.5L762.5 212.5L787.5 212.5L812.5 212.5L837.5 212.5L862.5 212.5L887.5 212.5L912.5 212.5L937.5 212.5L962.5 212.5L987.5 212.5L1012.5 212.5L1037.5 212.5L1062.5 212.5L1087.5 212.5L1112.5 212.5M512.5 212.5L537.5 212.5L562.5 212.5L587.5 187.5L612.5 187.5L637.5 187.5L662.5 187.5L687.5 187.5L712.5 187.5L737.5 187.5L762.5 187.5L787.5 187.5L812.5 187.5L837.5 187.5L862.5 187.5L887.5 187.5L912.5 162.5M587.5 212.5L612.5 237.5M812.5 237.5L837.5 262.5L862.5 262.5M112.5 262.5L137.5 237.5L162.5 237.5M237.5 212.5L262.5 237.5L287.5 237.5L312.5 237.5L337.5 237.5M337.5 212.5L362.5 187.5M537.5 237.5L562.5 262.5M637.5 212.5L662.5 237.5L687.5 237.5M362.5 212.5L387.5 237.5L412.5 262.5L437.5 262.5L462.5 262.5L487.5 262.5L512.5 262.5L537.5 262.5M-12.5 262.5L12.5 262.5L37.5 262.5L62.5 262.5L87.5 262.5L112.5 262.5L137.5 262.5L162.5 262.5L187.5 237.5L212.5 212.5L237.5 212.5L262.5 212.5L287.5 212.5L312.5 212.5L337.5 212.5L362.5 212.5L387.5 212.5L412.5 237.5L437.5 237.5L462.5 237.5L487.5 212.5L512.5 212.5L537.5 237.5L562.5 237.5L587.5 212.5L612.5 212.5L637.5 212.5L662.5 212.5L687.5 212.5L712.5 237.5L737.5 237.5L762.5 237.5L787.5 237.5L812.5 237.5L837.5 237.5L862.5 237.5L887.5 237.5L912.5 237.5L937.5 237.5L962.5 237.5L987.5 237.5L1012.5 237.5L1037.5 237.5L1062.5 237.5L1087.5 237.5L1112.5 237.5L1137.5 237.5L1162.5 237.5L1187.5 212.5" stroke="rgba(195, 253, 0, 1)" stroke-width="4.17"></path><path d="M1181.25 212.5 a6.25 6.25 0 1 0 12.5 0 a6.25 6.25 0 1 0 -12.5 0zM1331.25 237.5 a6.25 6.25 0 1 0 12.5 0 a6.25 6.25 0 1 0 -12.5 0zM1256.25 187.5 a6.25 6.25 0 1 0 12.5 0 a6.25 6.25 0 1 0 -12.5 0zM1106.25 212.5 a6.25 6.25 0 1 0 12.5 0 a6.25 6.25 0 1 0 -12.5 0zM906.25 162.5 a6.25 6.25 0 1 0 12.5 0 a6.25 6.25 0 1 0 -12.5 0zM606.25 237.5 a6.25 6.25 0 1 0 12.5 0 a6.25 6.25 0 1 0 -12.5 0zM856.25 262.5 a6.25 6.25 0 1 0 12.5 0 a6.25 6.25 0 1 0 -12.5 0zM156.25 237.5 a6.25 6.25 0 1 0 12.5 0 a6.25 6.25 0 1 0 -12.5 0zM331.25 237.5 a6.25 6.25 0 1 0 12.5 0 a6.25 6.25 0 1 0 -12.5 0zM356.25 187.5 a6.25 6.25 0 1 0 12.5 0 a6.25 6.25 0 1 0 -12.5 0zM556.25 262.5 a6.25 6.25 0 1 0 12.5 0 a6.25 6.25 0 1 0 -12.5 0zM681.25 237.5 a6.25 6.25 0 1 0 12.5 0 a6.25 6.25 0 1 0 -12.5 0zM531.25 262.5 a6.25 6.25 0 1 0 12.5 0 a6.25 6.25 0 1 0 -12.5 0z" fill="rgba(195, 253, 0, 1)"></path><path d="M62.5 337.5L87.5 362.5L112.5 362.5L137.5 362.5L162.5 387.5M237.5 362.5L262.5 387.5M262.5 362.5L287.5 362.5L312.5 362.5L337.5 362.5L362.5 362.5L387.5 362.5L412.5 337.5L437.5 337.5M437.5 387.5L462.5 362.5L487.5 362.5M212.5 362.5L237.5 387.5M-12.5 312.5L12.5 337.5L37.5 337.5L62.5 337.5L87.5 337.5L112.5 337.5L137.5 337.5L162.5 362.5L187.5 362.5L212.5 362.5L237.5 362.5L262.5 362.5L287.5 387.5L312.5 387.5L337.5 387.5L362.5 387.5L387.5 387.5L412.5 387.5L437.5 387.5L462.5 387.5L487.5 387.5L512.5 362.5" stroke="rgba(195, 253, 0, 1)" stroke-width="4.17"></path><path d="M506.25 362.5 a6.25 6.25 0 1 0 12.5 0 a6.25 6.25 0 1 0 -12.5 0zM156.25 387.5 a6.25 6.25 0 1 0 12.5 0 a6.25 6.25 0 1 0 -12.5 0zM256.25 387.5 a6.25 6.25 0 1 0 12.5 0 a6.25 6.25 0 1 0 -12.5 0zM431.25 337.5 a6.25 6.25 0 1 0 12.5 0 a6.25 6.25 0 1 0 -12.5 0zM481.25 362.5 a6.25 6.25 0 1 0 12.5 0 a6.25 6.25 0 1 0 -12.5 0zM231.25 387.5 a6.25 6.25 0 1 0 12.5 0 a6.25 6.25 0 1 0 -12.5 0z" fill="rgba(195, 253, 0, 1)"></path><path d="M12.5 237.5L37.5 237.5M87.5 212.5L112.5 237.5M-12.5 237.5L12.5 237.5L37.5 212.5L62.5 212.5L87.5 212.5L112.5 212.5L137.5 212.5L162.5 212.5L187.5 212.5L212.5 187.5L237.5 187.5L262.5 187.5L287.5 187.5L312.5 187.5" stroke="#3a7cc3" stroke-width="4.17"></path><path d="M306.25 187.5 a6.25 6.25 0 1 0 12.5 0 a6.25 6.25 0 1 0 -12.5 0zM31.25 237.5 a6.25 6.25 0 1 0 12.5 0 a6.25 6.25 0 1 0 -12.5 0zM106.25 237.5 a6.25 6.25 0 1 0 12.5 0 a6.25 6.25 0 1 0 -12.5 0z" fill="#3a7cc3"></path><path d="M37.5 387.5L62.5 362.5M12.5 362.5L37.5 362.5M-12.5 337.5L12.5 362.5L37.5 387.5L62.5 387.5" stroke="rgba(195, 253, 0, 1)" stroke-width="4.17"></path><path d="M56.25 387.5 a6.25 6.25 0 1 0 12.5 0 a6.25 6.25 0 1 0 -12.5 0zM56.25 362.5 a6.25 6.25 0 1 0 12.5 0 a6.25 6.25 0 1 0 -12.5 0zM31.25 362.5 a6.25 6.25 0 1 0 12.5 0 a6.25 6.25 0 1 0 -12.5 0z" fill="rgba(195, 253, 0, 1)"></path><path d="M512.5 162.5L537.5 187.5L562.5 187.5M812.5 162.5L837.5 137.5L862.5 137.5L887.5 137.5L912.5 137.5L937.5 137.5L962.5 137.5L987.5 162.5L1012.5 162.5M462.5 162.5L487.5 187.5L512.5 187.5M412.5 162.5L437.5 187.5L462.5 212.5M387.5 162.5L412.5 187.5L437.5 212.5M587.5 162.5L612.5 137.5M-12.5 212.5L12.5 212.5L37.5 187.5L62.5 187.5L87.5 187.5L112.5 187.5L137.5 187.5L162.5 187.5L187.5 187.5L212.5 162.5L237.5 162.5L262.5 162.5L287.5 162.5L312.5 162.5L337.5 162.5L362.5 162.5L387.5 162.5L412.5 162.5L437.5 162.5L462.5 162.5L487.5 162.5L512.5 162.5L537.5 162.5L562.5 162.5L587.5 162.5L612.5 162.5L637.5 162.5L662.5 162.5L687.5 162.5L712.5 162.5L737.5 162.5L762.5 162.5L787.5 162.5L812.5 162.5L837.5 162.5" stroke="rgba(195, 253, 0, 1)" stroke-width="4.17"></path><path d="M831.25 162.5 a6.25 6.25 0 1 0 12.5 0 a6.25 6.25 0 1 0 -12.5 0zM556.25 187.5 a6.25 6.25 0 1 0 12.5 0 a6.25 6.25 0 1 0 -12.5 0zM1006.25 162.5 a6.25 6.25 0 1 0 12.5 0 a6.25 6.25 0 1 0 -12.5 0zM506.25 187.5 a6.25 6.25 0 1 0 12.5 0 a6.25 6.25 0 1 0 -12.5 0zM456.25 212.5 a6.25 6.25 0 1 0 12.5 0 a6.25 6.25 0 1 0 -12.5 0zM431.25 212.5 a6.25 6.25 0 1 0 12.5 0 a6.25 6.25 0 1 0 -12.5 0zM606.25 137.5 a6.25 6.25 0 1 0 12.5 0 a6.25 6.25 0 1 0 -12.5 0z" fill="rgba(195, 253, 0, 1)"></path><path d="M587.5 412.5L612.5 387.5L637.5 387.5M112.5 412.5L137.5 387.5M837.5 462.5L862.5 437.5L887.5 437.5M662.5 462.5L687.5 437.5L712.5 437.5M887.5 462.5L912.5 462.5L937.5 462.5M187.5 412.5L212.5 387.5M812.5 462.5L837.5 437.5L862.5 412.5L887.5 412.5M762.5 462.5L787.5 437.5L812.5 437.5M437.5 412.5L462.5 437.5M-12.5 362.5L12.5 387.5L37.5 412.5L62.5 412.5L87.5 412.5L112.5 412.5L137.5 412.5L162.5 412.5L187.5 412.5L212.5 412.5L237.5 412.5L262.5 412.5L287.5 412.5L312.5 412.5L337.5 412.5L362.5 412.5L387.5 412.5L412.5 412.5L437.5 412.5L462.5 412.5L487.5 412.5L512.5 412.5L537.5 412.5L562.5 412.5L587.5 412.5L612.5 412.5L637.5 437.5L662.5 462.5L687.5 462.5L712.5 462.5L737.5 462.5L762.5 462.5L787.5 462.5L812.5 462.5L837.5 462.5L862.5 462.5L887.5 462.5L912.5 487.5" stroke="#3a7cc3" stroke-width="4.17"></path><path d="M906.25 487.5 a6.25 6.25 0 1 0 12.5 0 a6.25 6.25 0 1 0 -12.5 0zM631.25 387.5 a6.25 6.25 0 1 0 12.5 0 a6.25 6.25 0 1 0 -12.5 0zM131.25 387.5 a6.25 6.25 0 1 0 12.5 0 a6.25 6.25 0 1 0 -12.5 0zM881.25 437.5 a6.25 6.25 0 1 0 12.5 0 a6.25 6.25 0 1 0 -12.5 0zM706.25 437.5 a6.25 6.25 0 1 0 12.5 0 a6.25 6.25 0 1 0 -12.5 0zM931.25 462.5 a6.25 6.25 0 1 0 12.5 0 a6.25 6.25 0 1 0 -12.5 0zM206.25 387.5 a6.25 6.25 0 1 0 12.5 0 a6.25 6.25 0 1 0 -12.5 0zM881.25 412.5 a6.25 6.25 0 1 0 12.5 0 a6.25 6.25 0 1 0 -12.5 0zM806.25 437.5 a6.25 6.25 0 1 0 12.5 0 a6.25 6.25 0 1 0 -12.5 0zM456.25 437.5 a6.25 6.25 0 1 0 12.5 0 a6.25 6.25 0 1 0 -12.5 0z" fill="#3a7cc3"></path><path d="M387.5 137.5L412.5 112.5L437.5 112.5L462.5 112.5L487.5 112.5M687.5 137.5L712.5 112.5L737.5 112.5M362.5 137.5L387.5 112.5L412.5 87.5L437.5 87.5L462.5 87.5L487.5 87.5L512.5 87.5L537.5 87.5L562.5 87.5M612.5 112.5L637.5 112.5L662.5 112.5L687.5 112.5L712.5 87.5L737.5 87.5L762.5 87.5M137.5 162.5L162.5 137.5L187.5 137.5M337.5 137.5L362.5 112.5M562.5 137.5L587.5 137.5M537.5 137.5L562.5 112.5M-12.5 187.5L12.5 187.5L37.5 162.5L62.5 162.5L87.5 162.5L112.5 162.5L137.5 162.5L162.5 162.5L187.5 162.5L212.5 137.5L237.5 137.5L262.5 137.5L287.5 137.5L312.5 137.5L337.5 137.5L362.5 137.5L387.5 137.5L412.5 137.5L437.5 137.5L462.5 137.5L487.5 137.5L512.5 137.5L537.5 137.5L562.5 137.5L587.5 112.5L612.5 112.5L637.5 137.5L662.5 137.5L687.5 137.5L712.5 137.5L737.5 137.5L762.5 137.5L787.5 137.5" stroke="#3a7cc3" stroke-width="4.17"></path><path d="M781.25 137.5 a6.25 6.25 0 1 0 12.5 0 a6.25 6.25 0 1 0 -12.5 0zM481.25 112.5 a6.25 6.25 0 1 0 12.5 0 a6.25 6.25 0 1 0 -12.5 0zM731.25 112.5 a6.25 6.25 0 1 0 12.5 0 a6.25 6.25 0 1 0 -12.5 0zM556.25 87.5 a6.25 6.25 0 1 0 12.5 0 a6.25 6.25 0 1 0 -12.5 0zM756.25 87.5 a6.25 6.25 0 1 0 12.5 0 a6.25 6.25 0 1 0 -12.5 0zM181.25 137.5 a6.25 6.25 0 1 0 12.5 0 a6.25 6.25 0 1 0 -12.5 0zM356.25 112.5 a6.25 6.25 0 1 0 12.5 0 a6.25 6.25 0 1 0 -12.5 0zM581.25 137.5 a6.25 6.25 0 1 0 12.5 0 a6.25 6.25 0 1 0 -12.5 0zM556.25 112.5 a6.25 6.25 0 1 0 12.5 0 a6.25 6.25 0 1 0 -12.5 0z" fill="#3a7cc3"></path><path d="M837.5 487.5L862.5 512.5L887.5 512.5M712.5 487.5L737.5 512.5M487.5 462.5L512.5 487.5L537.5 487.5L562.5 512.5L587.5 512.5L612.5 512.5M112.5 437.5L137.5 462.5L162.5 462.5L187.5 462.5L212.5 462.5M237.5 437.5L262.5 462.5L287.5 462.5L312.5 462.5M787.5 487.5L812.5 512.5L837.5 512.5M537.5 462.5L562.5 462.5L587.5 462.5L612.5 462.5M512.5 462.5L537.5 437.5L562.5 437.5L587.5 437.5L612.5 437.5M387.5 437.5L412.5 437.5L437.5 437.5M687.5 487.5L712.5 512.5M-12.5 387.5L12.5 412.5L37.5 437.5L62.5 437.5L87.5 437.5L112.5 437.5L137.5 437.5L162.5 437.5L187.5 437.5L212.5 437.5L237.5 437.5L262.5 437.5L287.5 437.5L312.5 437.5L337.5 437.5L362.5 437.5L387.5 437.5L412.5 462.5L437.5 462.5L462.5 462.5L487.5 462.5L512.5 462.5L537.5 462.5L562.5 487.5L587.5 487.5L612.5 487.5L637.5 487.5L662.5 487.5L687.5 487.5L712.5 487.5L737.5 487.5L762.5 487.5L787.5 487.5L812.5 487.5L837.5 487.5L862.5 487.5L887.5 487.5L912.5 512.5L937.5 512.5L962.5 512.5" stroke="rgba(195, 253, 0, 1)" stroke-width="4.17"></path><path d="M956.25 512.5 a6.25 6.25 0 1 0 12.5 0 a6.25 6.25 0 1 0 -12.5 0zM881.25 512.5 a6.25 6.25 0 1 0 12.5 0 a6.25 6.25 0 1 0 -12.5 0zM731.25 512.5 a6.25 6.25 0 1 0 12.5 0 a6.25 6.25 0 1 0 -12.5 0zM606.25 512.5 a6.25 6.25 0 1 0 12.5 0 a6.25 6.25 0 1 0 -12.5 0zM206.25 462.5 a6.25 6.25 0 1 0 12.5 0 a6.25 6.25 0 1 0 -12.5 0zM306.25 462.5 a6.25 6.25 0 1 0 12.5 0 a6.25 6.25 0 1 0 -12.5 0zM831.25 512.5 a6.25 6.25 0 1 0 12.5 0 a6.25 6.25 0 1 0 -12.5 0zM606.25 462.5 a6.25 6.25 0 1 0 12.5 0 a6.25 6.25 0 1 0 -12.5 0zM606.25 437.5 a6.25 6.25 0 1 0 12.5 0 a6.25 6.25 0 1 0 -12.5 0zM431.25 437.5 a6.25 6.25 0 1 0 12.5 0 a6.25 6.25 0 1 0 -12.5 0zM706.25 512.5 a6.25 6.25 0 1 0 12.5 0 a6.25 6.25 0 1 0 -12.5 0z" fill="rgba(195, 253, 0, 1)"></path><path d="M212.5 112.5L237.5 87.5L262.5 87.5L287.5 87.5L312.5 87.5M187.5 112.5L212.5 87.5L237.5 62.5L262.5 62.5L287.5 62.5M12.5 137.5L37.5 112.5L62.5 112.5L87.5 112.5L112.5 112.5M-12.5 162.5L12.5 137.5L37.5 137.5L62.5 137.5L87.5 137.5L112.5 137.5L137.5 112.5L162.5 112.5L187.5 112.5L212.5 112.5L237.5 112.5L262.5 112.5L287.5 112.5L312.5 112.5" stroke="rgba(195, 253, 0, 1)" stroke-width="4.17"></path><path d="M306.25 112.5 a6.25 6.25 0 1 0 12.5 0 a6.25 6.25 0 1 0 -12.5 0zM306.25 87.5 a6.25 6.25 0 1 0 12.5 0 a6.25 6.25 0 1 0 -12.5 0zM281.25 62.5 a6.25 6.25 0 1 0 12.5 0 a6.25 6.25 0 1 0 -12.5 0zM106.25 112.5 a6.25 6.25 0 1 0 12.5 0 a6.25 6.25 0 1 0 -12.5 0z" fill="rgba(195, 253, 0, 1)"></path></g></g><defs><mask id="SvgjsMask1306"><rect width="1440" height="560" fill="#ffffff"></rect></mask><mask id="SvgjsMask1307"><rect width="1440" height="560" fill="white"></rect><path d="M1234.37 387.5 a3.13 3.13 0 1 0 6.26 0 a3.13 3.13 0 1 0 -6.26 0zM109.37 287.5 a3.13 3.13 0 1 0 6.26 0 a3.13 3.13 0 1 0 -6.26 0zM1159.37 312.5 a3.13 3.13 0 1 0 6.26 0 a3.13 3.13 0 1 0 -6.26 0zM1034.37 362.5 a3.13 3.13 0 1 0 6.26 0 a3.13 3.13 0 1 0 -6.26 0zM534.37 337.5 a3.13 3.13 0 1 0 6.26 0 a3.13 3.13 0 1 0 -6.26 0zM584.37 287.5 a3.13 3.13 0 1 0 6.26 0 a3.13 3.13 0 1 0 -6.26 0zM684.37 262.5 a3.13 3.13 0 1 0 6.26 0 a3.13 3.13 0 1 0 -6.26 0zM1159.37 362.5 a3.13 3.13 0 1 0 6.26 0 a3.13 3.13 0 1 0 -6.26 0zM309.37 337.5 a3.13 3.13 0 1 0 6.26 0 a3.13 3.13 0 1 0 -6.26 0zM834.37 387.5 a3.13 3.13 0 1 0 6.26 0 a3.13 3.13 0 1 0 -6.26 0zM734.37 312.5 a3.13 3.13 0 1 0 6.26 0 a3.13 3.13 0 1 0 -6.26 0zM709.37 312.5 a3.13 3.13 0 1 0 6.26 0 a3.13 3.13 0 1 0 -6.26 0zM309.37 287.5 a3.13 3.13 0 1 0 6.26 0 a3.13 3.13 0 1 0 -6.26 0z" fill="black"></path><path d="M1184.37 212.5 a3.13 3.13 0 1 0 6.26 0 a3.13 3.13 0 1 0 -6.26 0zM1334.37 237.5 a3.13 3.13 0 1 0 6.26 0 a3.13 3.13 0 1 0 -6.26 0zM1259.37 187.5 a3.13 3.13 0 1 0 6.26 0 a3.13 3.13 0 1 0 -6.26 0zM1109.37 212.5 a3.13 3.13 0 1 0 6.26 0 a3.13 3.13 0 1 0 -6.26 0zM909.37 162.5 a3.13 3.13 0 1 0 6.26 0 a3.13 3.13 0 1 0 -6.26 0zM609.37 237.5 a3.13 3.13 0 1 0 6.26 0 a3.13 3.13 0 1 0 -6.26 0zM859.37 262.5 a3.13 3.13 0 1 0 6.26 0 a3.13 3.13 0 1 0 -6.26 0zM159.37 237.5 a3.13 3.13 0 1 0 6.26 0 a3.13 3.13 0 1 0 -6.26 0zM334.37 237.5 a3.13 3.13 0 1 0 6.26 0 a3.13 3.13 0 1 0 -6.26 0zM359.37 187.5 a3.13 3.13 0 1 0 6.26 0 a3.13 3.13 0 1 0 -6.26 0zM559.37 262.5 a3.13 3.13 0 1 0 6.26 0 a3.13 3.13 0 1 0 -6.26 0zM684.37 237.5 a3.13 3.13 0 1 0 6.26 0 a3.13 3.13 0 1 0 -6.26 0zM534.37 262.5 a3.13 3.13 0 1 0 6.26 0 a3.13 3.13 0 1 0 -6.26 0z" fill="black"></path><path d="M509.37 362.5 a3.13 3.13 0 1 0 6.26 0 a3.13 3.13 0 1 0 -6.26 0zM159.37 387.5 a3.13 3.13 0 1 0 6.26 0 a3.13 3.13 0 1 0 -6.26 0zM259.37 387.5 a3.13 3.13 0 1 0 6.26 0 a3.13 3.13 0 1 0 -6.26 0zM434.37 337.5 a3.13 3.13 0 1 0 6.26 0 a3.13 3.13 0 1 0 -6.26 0zM484.37 362.5 a3.13 3.13 0 1 0 6.26 0 a3.13 3.13 0 1 0 -6.26 0zM234.37 387.5 a3.13 3.13 0 1 0 6.26 0 a3.13 3.13 0 1 0 -6.26 0z" fill="black"></path><path d="M309.37 187.5 a3.13 3.13 0 1 0 6.26 0 a3.13 3.13 0 1 0 -6.26 0zM34.37 237.5 a3.13 3.13 0 1 0 6.26 0 a3.13 3.13 0 1 0 -6.26 0zM109.37 237.5 a3.13 3.13 0 1 0 6.26 0 a3.13 3.13 0 1 0 -6.26 0z" fill="black"></path><path d="M59.37 387.5 a3.13 3.13 0 1 0 6.26 0 a3.13 3.13 0 1 0 -6.26 0zM59.37 362.5 a3.13 3.13 0 1 0 6.26 0 a3.13 3.13 0 1 0 -6.26 0zM34.37 362.5 a3.13 3.13 0 1 0 6.26 0 a3.13 3.13 0 1 0 -6.26 0z" fill="black"></path><path d="M834.37 162.5 a3.13 3.13 0 1 0 6.26 0 a3.13 3.13 0 1 0 -6.26 0zM559.37 187.5 a3.13 3.13 0 1 0 6.26 0 a3.13 3.13 0 1 0 -6.26 0zM1009.37 162.5 a3.13 3.13 0 1 0 6.26 0 a3.13 3.13 0 1 0 -6.26 0zM509.37 187.5 a3.13 3.13 0 1 0 6.26 0 a3.13 3.13 0 1 0 -6.26 0zM459.37 212.5 a3.13 3.13 0 1 0 6.26 0 a3.13 3.13 0 1 0 -6.26 0zM434.37 212.5 a3.13 3.13 0 1 0 6.26 0 a3.13 3.13 0 1 0 -6.26 0zM609.37 137.5 a3.13 3.13 0 1 0 6.26 0 a3.13 3.13 0 1 0 -6.26 0z" fill="black"></path><path d="M909.37 487.5 a3.13 3.13 0 1 0 6.26 0 a3.13 3.13 0 1 0 -6.26 0zM634.37 387.5 a3.13 3.13 0 1 0 6.26 0 a3.13 3.13 0 1 0 -6.26 0zM134.37 387.5 a3.13 3.13 0 1 0 6.26 0 a3.13 3.13 0 1 0 -6.26 0zM884.37 437.5 a3.13 3.13 0 1 0 6.26 0 a3.13 3.13 0 1 0 -6.26 0zM709.37 437.5 a3.13 3.13 0 1 0 6.26 0 a3.13 3.13 0 1 0 -6.26 0zM934.37 462.5 a3.13 3.13 0 1 0 6.26 0 a3.13 3.13 0 1 0 -6.26 0zM209.37 387.5 a3.13 3.13 0 1 0 6.26 0 a3.13 3.13 0 1 0 -6.26 0zM884.37 412.5 a3.13 3.13 0 1 0 6.26 0 a3.13 3.13 0 1 0 -6.26 0zM809.37 437.5 a3.13 3.13 0 1 0 6.26 0 a3.13 3.13 0 1 0 -6.26 0zM459.37 437.5 a3.13 3.13 0 1 0 6.26 0 a3.13 3.13 0 1 0 -6.26 0z" fill="black"></path><path d="M784.37 137.5 a3.13 3.13 0 1 0 6.26 0 a3.13 3.13 0 1 0 -6.26 0zM484.37 112.5 a3.13 3.13 0 1 0 6.26 0 a3.13 3.13 0 1 0 -6.26 0zM734.37 112.5 a3.13 3.13 0 1 0 6.26 0 a3.13 3.13 0 1 0 -6.26 0zM559.37 87.5 a3.13 3.13 0 1 0 6.26 0 a3.13 3.13 0 1 0 -6.26 0zM759.37 87.5 a3.13 3.13 0 1 0 6.26 0 a3.13 3.13 0 1 0 -6.26 0zM184.37 137.5 a3.13 3.13 0 1 0 6.26 0 a3.13 3.13 0 1 0 -6.26 0zM359.37 112.5 a3.13 3.13 0 1 0 6.26 0 a3.13 3.13 0 1 0 -6.26 0zM584.37 137.5 a3.13 3.13 0 1 0 6.26 0 a3.13 3.13 0 1 0 -6.26 0zM559.37 112.5 a3.13 3.13 0 1 0 6.26 0 a3.13 3.13 0 1 0 -6.26 0z" fill="black"></path><path d="M959.37 512.5 a3.13 3.13 0 1 0 6.26 0 a3.13 3.13 0 1 0 -6.26 0zM884.37 512.5 a3.13 3.13 0 1 0 6.26 0 a3.13 3.13 0 1 0 -6.26 0zM734.37 512.5 a3.13 3.13 0 1 0 6.26 0 a3.13 3.13 0 1 0 -6.26 0zM609.37 512.5 a3.13 3.13 0 1 0 6.26 0 a3.13 3.13 0 1 0 -6.26 0zM209.37 462.5 a3.13 3.13 0 1 0 6.26 0 a3.13 3.13 0 1 0 -6.26 0zM309.37 462.5 a3.13 3.13 0 1 0 6.26 0 a3.13 3.13 0 1 0 -6.26 0zM834.37 512.5 a3.13 3.13 0 1 0 6.26 0 a3.13 3.13 0 1 0 -6.26 0zM609.37 462.5 a3.13 3.13 0 1 0 6.26 0 a3.13 3.13 0 1 0 -6.26 0zM609.37 437.5 a3.13 3.13 0 1 0 6.26 0 a3.13 3.13 0 1 0 -6.26 0zM434.37 437.5 a3.13 3.13 0 1 0 6.26 0 a3.13 3.13 0 1 0 -6.26 0zM709.37 512.5 a3.13 3.13 0 1 0 6.26 0 a3.13 3.13 0 1 0 -6.26 0z" fill="black"></path><path d="M309.37 112.5 a3.13 3.13 0 1 0 6.26 0 a3.13 3.13 0 1 0 -6.26 0zM309.37 87.5 a3.13 3.13 0 1 0 6.26 0 a3.13 3.13 0 1 0 -6.26 0zM284.37 62.5 a3.13 3.13 0 1 0 6.26 0 a3.13 3.13 0 1 0 -6.26 0zM109.37 112.5 a3.13 3.13 0 1 0 6.26 0 a3.13 3.13 0 1 0 -6.26 0z" fill="black"></path></mask></defs></svg>