<svg xmlns="http://www.w3.org/2000/svg" version="1.1" xmlns:xlink="http://www.w3.org/1999/xlink" xmlns:svgjs="http://svgjs.com/svgjs" width="1440" height="560" preserveAspectRatio="none" viewBox="0 0 1440 560"><g mask="url(&quot;#SvgjsMask1178&quot;)" fill="none"><rect width="1440" height="560" x="0" y="0" fill="rgba(51, 51, 51, 1)"></rect><path d="M316.83 51.26L373.12 83.76L373.12 148.76L316.83 181.26L260.53 148.76L260.53 83.76zM316.83 246.26L373.12 278.76L373.12 343.76L316.83 376.26L260.53 343.76L260.53 278.76zM316.83 441.26L373.12 473.76L373.12 538.76L316.83 571.26L260.53 538.76L260.53 473.76zM429.41 51.26L485.71 83.76L485.71 148.76L429.41 181.26L373.12 148.76L373.12 83.76zM598.29 343.76L654.59 376.26L654.59 441.26L598.29 473.76L542 441.26L542 376.26zM710.88 -46.24L767.17 -13.74L767.17 51.26L710.88 83.76L654.59 51.26L654.59 -13.74zM767.17 246.26L823.47 278.76L823.47 343.76L767.17 376.26L710.88 343.76L710.88 278.76zM710.88 538.76L767.17 571.26L767.17 636.26L710.88 668.76L654.59 636.26L654.59 571.26zM1217.52 441.26L1273.81 473.76L1273.81 538.76L1217.52 571.26L1161.22 538.76L1161.22 473.76zM1330.1 441.26L1386.4 473.76L1386.4 538.76L1330.1 571.26L1273.81 538.76L1273.81 473.76zM1386.4 148.76L1442.69 181.26L1442.69 246.26L1386.4 278.76L1330.1 246.26L1330.1 181.26z" stroke="rgba(86, 81, 10, 0.73)" stroke-width="2"></path><path d="M310.33 51.26 a6.5 6.5 0 1 0 13 0 a6.5 6.5 0 1 0 -13 0zM366.62 83.76 a6.5 6.5 0 1 0 13 0 a6.5 6.5 0 1 0 -13 0zM366.62 148.76 a6.5 6.5 0 1 0 13 0 a6.5 6.5 0 1 0 -13 0zM310.33 181.26 a6.5 6.5 0 1 0 13 0 a6.5 6.5 0 1 0 -13 0zM254.03 148.76 a6.5 6.5 0 1 0 13 0 a6.5 6.5 0 1 0 -13 0zM254.03 83.76 a6.5 6.5 0 1 0 13 0 a6.5 6.5 0 1 0 -13 0zM310.33 246.26 a6.5 6.5 0 1 0 13 0 a6.5 6.5 0 1 0 -13 0zM366.62 278.76 a6.5 6.5 0 1 0 13 0 a6.5 6.5 0 1 0 -13 0zM366.62 343.76 a6.5 6.5 0 1 0 13 0 a6.5 6.5 0 1 0 -13 0zM310.33 376.26 a6.5 6.5 0 1 0 13 0 a6.5 6.5 0 1 0 -13 0zM254.03 343.76 a6.5 6.5 0 1 0 13 0 a6.5 6.5 0 1 0 -13 0zM254.03 278.76 a6.5 6.5 0 1 0 13 0 a6.5 6.5 0 1 0 -13 0zM310.33 441.26 a6.5 6.5 0 1 0 13 0 a6.5 6.5 0 1 0 -13 0zM366.62 473.76 a6.5 6.5 0 1 0 13 0 a6.5 6.5 0 1 0 -13 0zM366.62 538.76 a6.5 6.5 0 1 0 13 0 a6.5 6.5 0 1 0 -13 0zM310.33 571.26 a6.5 6.5 0 1 0 13 0 a6.5 6.5 0 1 0 -13 0zM254.03 538.76 a6.5 6.5 0 1 0 13 0 a6.5 6.5 0 1 0 -13 0zM254.03 473.76 a6.5 6.5 0 1 0 13 0 a6.5 6.5 0 1 0 -13 0zM422.91 51.26 a6.5 6.5 0 1 0 13 0 a6.5 6.5 0 1 0 -13 0zM479.21 83.76 a6.5 6.5 0 1 0 13 0 a6.5 6.5 0 1 0 -13 0zM479.21 148.76 a6.5 6.5 0 1 0 13 0 a6.5 6.5 0 1 0 -13 0zM422.91 181.26 a6.5 6.5 0 1 0 13 0 a6.5 6.5 0 1 0 -13 0zM591.79 343.76 a6.5 6.5 0 1 0 13 0 a6.5 6.5 0 1 0 -13 0zM648.09 376.26 a6.5 6.5 0 1 0 13 0 a6.5 6.5 0 1 0 -13 0zM648.09 441.26 a6.5 6.5 0 1 0 13 0 a6.5 6.5 0 1 0 -13 0zM591.79 473.76 a6.5 6.5 0 1 0 13 0 a6.5 6.5 0 1 0 -13 0zM535.5 441.26 a6.5 6.5 0 1 0 13 0 a6.5 6.5 0 1 0 -13 0zM535.5 376.26 a6.5 6.5 0 1 0 13 0 a6.5 6.5 0 1 0 -13 0zM704.38 -46.24 a6.5 6.5 0 1 0 13 0 a6.5 6.5 0 1 0 -13 0zM760.67 -13.74 a6.5 6.5 0 1 0 13 0 a6.5 6.5 0 1 0 -13 0zM760.67 51.26 a6.5 6.5 0 1 0 13 0 a6.5 6.5 0 1 0 -13 0zM704.38 83.76 a6.5 6.5 0 1 0 13 0 a6.5 6.5 0 1 0 -13 0zM648.09 51.26 a6.5 6.5 0 1 0 13 0 a6.5 6.5 0 1 0 -13 0zM648.09 -13.74 a6.5 6.5 0 1 0 13 0 a6.5 6.5 0 1 0 -13 0zM760.67 246.26 a6.5 6.5 0 1 0 13 0 a6.5 6.5 0 1 0 -13 0zM816.97 278.76 a6.5 6.5 0 1 0 13 0 a6.5 6.5 0 1 0 -13 0zM816.97 343.76 a6.5 6.5 0 1 0 13 0 a6.5 6.5 0 1 0 -13 0zM760.67 376.26 a6.5 6.5 0 1 0 13 0 a6.5 6.5 0 1 0 -13 0zM704.38 343.76 a6.5 6.5 0 1 0 13 0 a6.5 6.5 0 1 0 -13 0zM704.38 278.76 a6.5 6.5 0 1 0 13 0 a6.5 6.5 0 1 0 -13 0zM704.38 538.76 a6.5 6.5 0 1 0 13 0 a6.5 6.5 0 1 0 -13 0zM760.67 571.26 a6.5 6.5 0 1 0 13 0 a6.5 6.5 0 1 0 -13 0zM760.67 636.26 a6.5 6.5 0 1 0 13 0 a6.5 6.5 0 1 0 -13 0zM704.38 668.76 a6.5 6.5 0 1 0 13 0 a6.5 6.5 0 1 0 -13 0zM648.09 636.26 a6.5 6.5 0 1 0 13 0 a6.5 6.5 0 1 0 -13 0zM648.09 571.26 a6.5 6.5 0 1 0 13 0 a6.5 6.5 0 1 0 -13 0zM1211.02 441.26 a6.5 6.5 0 1 0 13 0 a6.5 6.5 0 1 0 -13 0zM1267.31 473.76 a6.5 6.5 0 1 0 13 0 a6.5 6.5 0 1 0 -13 0zM1267.31 538.76 a6.5 6.5 0 1 0 13 0 a6.5 6.5 0 1 0 -13 0zM1211.02 571.26 a6.5 6.5 0 1 0 13 0 a6.5 6.5 0 1 0 -13 0zM1154.72 538.76 a6.5 6.5 0 1 0 13 0 a6.5 6.5 0 1 0 -13 0zM1154.72 473.76 a6.5 6.5 0 1 0 13 0 a6.5 6.5 0 1 0 -13 0zM1323.6 441.26 a6.5 6.5 0 1 0 13 0 a6.5 6.5 0 1 0 -13 0zM1379.9 473.76 a6.5 6.5 0 1 0 13 0 a6.5 6.5 0 1 0 -13 0zM1379.9 538.76 a6.5 6.5 0 1 0 13 0 a6.5 6.5 0 1 0 -13 0zM1323.6 571.26 a6.5 6.5 0 1 0 13 0 a6.5 6.5 0 1 0 -13 0zM1379.9 148.76 a6.5 6.5 0 1 0 13 0 a6.5 6.5 0 1 0 -13 0zM1436.19 181.26 a6.5 6.5 0 1 0 13 0 a6.5 6.5 0 1 0 -13 0zM1436.19 246.26 a6.5 6.5 0 1 0 13 0 a6.5 6.5 0 1 0 -13 0zM1379.9 278.76 a6.5 6.5 0 1 0 13 0 a6.5 6.5 0 1 0 -13 0zM1323.6 246.26 a6.5 6.5 0 1 0 13 0 a6.5 6.5 0 1 0 -13 0zM1323.6 181.26 a6.5 6.5 0 1 0 13 0 a6.5 6.5 0 1 0 -13 0z" fill="rgba(86, 81, 10, 0.73)"></path><path d="M66.14 64.31L109.45 89.31L109.45 139.31L66.14 164.31L22.84 139.31L22.84 89.31zM109.45 -10.69L152.75 14.31L152.75 64.31L109.45 89.31L66.14 64.31L66.14 14.31zM152.75 214.31L196.05 239.31L196.05 289.31L152.75 314.31L109.45 289.31L109.45 239.31zM196.05 289.31L239.35 314.31L239.35 364.31L196.05 389.31L152.75 364.31L152.75 314.31zM239.35 364.31L282.65 389.31L282.65 439.31L239.35 464.31L196.05 439.31L196.05 389.31zM325.96 214.31L369.26 239.31L369.26 289.31L325.96 314.31L282.65 289.31L282.65 239.31zM412.56 514.31L455.87 539.31L455.87 589.31L412.56 614.31L369.26 589.31L369.26 539.31zM499.17 514.31L542.47 539.31L542.47 589.31L499.17 614.31L455.87 589.31L455.87 539.31zM585.77 214.31L629.08 239.31L629.08 289.31L585.77 314.31L542.47 289.31L542.47 239.31zM585.77 364.31L629.08 389.31L629.08 439.31L585.77 464.31L542.47 439.31L542.47 389.31zM672.38 514.31L715.68 539.31L715.68 589.31L672.38 614.31L629.08 589.31L629.08 539.31zM715.68 289.31L758.98 314.31L758.98 364.31L715.68 389.31L672.38 364.31L672.38 314.31zM758.98 514.31L802.29 539.31L802.29 589.31L758.98 614.31L715.68 589.31L715.68 539.31zM845.59 64.31L888.89 89.31L888.89 139.31L845.59 164.31L802.29 139.31L802.29 89.31zM932.19 64.31L975.5 89.31L975.5 139.31L932.19 164.31L888.89 139.31L888.89 89.31zM888.89 139.31L932.19 164.31L932.19 214.31L888.89 239.31L845.59 214.31L845.59 164.31zM1018.8 214.31L1062.1 239.31L1062.1 289.31L1018.8 314.31L975.5 289.31L975.5 239.31zM1018.8 364.31L1062.1 389.31L1062.1 439.31L1018.8 464.31L975.5 439.31L975.5 389.31zM1062.1 -10.69L1105.4 14.31L1105.4 64.31L1062.1 89.31L1018.8 64.31L1018.8 14.31zM1062.1 139.31L1105.4 164.31L1105.4 214.31L1062.1 239.31L1018.8 214.31L1018.8 164.31zM1148.7 289.31L1192.01 314.31L1192.01 364.31L1148.7 389.31L1105.4 364.31L1105.4 314.31z" stroke="rgba(146, 156, 6, 0.93)" stroke-width="2"></path></g><defs><mask id="SvgjsMask1178"><rect width="1440" height="560" fill="#ffffff"></rect></mask></defs></svg>