<svg xmlns="http://www.w3.org/2000/svg" version="1.1" xmlns:xlink="http://www.w3.org/1999/xlink" xmlns:svgjs="http://svgjs.com/svgjs" width="1440" height="560" preserveAspectRatio="none" viewBox="0 0 1440 560"><g mask="url(&quot;#SvgjsMask1008&quot;)" fill="none"><rect width="1440" height="560" x="0" y="0" fill="rgba(51, 51, 51, 1)"></rect><path d="M-47.55 406.75L-47.55 406.75" stroke="rgba(13, 32, 51, 1)" stroke-width="1.5"></path><path d="M-47.55 406.75L-83.3 518.33" stroke="rgba(13, 32, 51, 1)" stroke-width="1.5"></path><path d="M-47.55 406.75L82.18 388.06" stroke="rgba(13, 32, 51, 1)" stroke-width="1.5"></path><path d="M-47.55 406.75L83.28 501.68" stroke="rgba(13, 32, 51, 1)" stroke-width="1.5"></path><path d="M-47.55 406.75L89.75 657.51" stroke="rgba(13, 32, 51, 1)" stroke-width="1.5"></path><path d="M-47.55 406.75L239.39 340.55" stroke="rgba(13, 32, 51, 1)" stroke-width="1.5"></path><path d="M-83.3 518.33L-83.3 518.33" stroke="rgba(13, 32, 51, 1)" stroke-width="1.5"></path><path d="M-83.3 518.33L83.28 501.68" stroke="rgba(13, 32, 51, 1)" stroke-width="1.5"></path><path d="M-83.3 518.33L-109.19 709.31" stroke="rgba(13, 32, 51, 1)" stroke-width="1.5"></path><path d="M-83.3 518.33L82.18 388.06" stroke="rgba(13, 32, 51, 1)" stroke-width="1.5"></path><path d="M-83.3 518.33L89.75 657.51" stroke="rgba(13, 32, 51, 1)" stroke-width="1.5"></path><path d="M-109.19 709.31L-109.19 709.31" stroke="rgba(13, 32, 51, 1)" stroke-width="1.5"></path><path d="M-109.19 709.31L89.75 657.51" stroke="rgba(13, 32, 51, 1)" stroke-width="1.5"></path><path d="M-109.19 709.31L83.28 501.68" stroke="rgba(13, 32, 51, 1)" stroke-width="1.5"></path><path d="M82.18 388.06L82.18 388.06" stroke="rgba(13, 32, 51, 1)" stroke-width="1.5"></path><path d="M82.18 388.06L83.28 501.68" stroke="rgba(13, 32, 51, 1)" stroke-width="1.5"></path><path d="M82.18 388.06L239.39 340.55" stroke="rgba(13, 32, 51, 1)" stroke-width="1.5"></path><path d="M83.28 501.68L83.28 501.68" stroke="rgba(13, 32, 51, 1)" stroke-width="1.5"></path><path d="M83.28 501.68L89.75 657.51" stroke="rgba(13, 32, 51, 1)" stroke-width="1.5"></path><path d="M89.75 657.51L89.75 657.51" stroke="rgba(13, 32, 51, 1)" stroke-width="1.5"></path><path d="M89.75 657.51L246.59 674" stroke="rgba(13, 32, 51, 1)" stroke-width="1.5"></path><path d="M89.75 657.51L229.12 560.83" stroke="rgba(13, 32, 51, 1)" stroke-width="1.5"></path><path d="M239.39 340.55L239.39 340.55" stroke="rgba(13, 32, 51, 1)" stroke-width="1.5"></path><path d="M239.39 340.55L347.61 348.37" stroke="rgba(13, 32, 51, 1)" stroke-width="1.5"></path><path d="M239.39 340.55L229.12 560.83" stroke="rgba(13, 32, 51, 1)" stroke-width="1.5"></path><path d="M229.12 560.83L229.12 560.83" stroke="rgba(13, 32, 51, 1)" stroke-width="1.5"></path><path d="M229.12 560.83L339.95 540.93" stroke="rgba(13, 32, 51, 1)" stroke-width="1.5"></path><path d="M229.12 560.83L246.59 674" stroke="rgba(13, 32, 51, 1)" stroke-width="1.5"></path><path d="M229.12 560.83L338.89 646.31" stroke="rgba(13, 32, 51, 1)" stroke-width="1.5"></path><path d="M229.12 560.83L83.28 501.68" stroke="rgba(13, 32, 51, 1)" stroke-width="1.5"></path><path d="M246.59 674L246.59 674" stroke="rgba(13, 32, 51, 1)" stroke-width="1.5"></path><path d="M246.59 674L338.89 646.31" stroke="rgba(13, 32, 51, 1)" stroke-width="1.5"></path><path d="M347.61 348.37L347.61 348.37" stroke="rgba(13, 32, 51, 1)" stroke-width="1.5"></path><path d="M347.61 348.37L495.61 388.68" stroke="rgba(13, 32, 51, 1)" stroke-width="1.5"></path><path d="M347.61 348.37L339.95 540.93" stroke="rgba(13, 32, 51, 1)" stroke-width="1.5"></path><path d="M347.61 348.37L229.12 560.83" stroke="rgba(13, 32, 51, 1)" stroke-width="1.5"></path><path d="M347.61 348.37L82.18 388.06" stroke="rgba(13, 32, 51, 1)" stroke-width="1.5"></path><path d="M347.61 348.37L560.54 552.48" stroke="rgba(13, 32, 51, 1)" stroke-width="1.5"></path><path d="M339.95 540.93L339.95 540.93" stroke="rgba(13, 32, 51, 1)" stroke-width="1.5"></path><path d="M339.95 540.93L338.89 646.31" stroke="rgba(13, 32, 51, 1)" stroke-width="1.5"></path><path d="M339.95 540.93L246.59 674" stroke="rgba(13, 32, 51, 1)" stroke-width="1.5"></path><path d="M338.89 646.31L338.89 646.31" stroke="rgba(13, 32, 51, 1)" stroke-width="1.5"></path><path d="M495.61 388.68L495.61 388.68" stroke="rgba(13, 32, 51, 1)" stroke-width="1.5"></path><path d="M495.61 388.68L560.54 552.48" stroke="rgba(13, 32, 51, 1)" stroke-width="1.5"></path><path d="M495.61 388.68L666.62 342.64" stroke="rgba(13, 32, 51, 1)" stroke-width="1.5"></path><path d="M495.61 388.68L658.06 524.43" stroke="rgba(13, 32, 51, 1)" stroke-width="1.5"></path><path d="M560.54 552.48L560.54 552.48" stroke="rgba(13, 32, 51, 1)" stroke-width="1.5"></path><path d="M560.54 552.48L658.06 524.43" stroke="rgba(13, 32, 51, 1)" stroke-width="1.5"></path><path d="M560.54 552.48L661.12 640.17" stroke="rgba(13, 32, 51, 1)" stroke-width="1.5"></path><path d="M560.54 552.48L547.76 707.79" stroke="rgba(13, 32, 51, 1)" stroke-width="1.5"></path><path d="M560.54 552.48L339.95 540.93" stroke="rgba(13, 32, 51, 1)" stroke-width="1.5"></path><path d="M560.54 552.48L666.62 342.64" stroke="rgba(13, 32, 51, 1)" stroke-width="1.5"></path><path d="M547.76 707.79L547.76 707.79" stroke="rgba(13, 32, 51, 1)" stroke-width="1.5"></path><path d="M547.76 707.79L661.12 640.17" stroke="rgba(13, 32, 51, 1)" stroke-width="1.5"></path><path d="M547.76 707.79L658.06 524.43" stroke="rgba(13, 32, 51, 1)" stroke-width="1.5"></path><path d="M676.4 253.5L676.4 253.5" stroke="rgba(13, 32, 51, 1)" stroke-width="1.5"></path><path d="M676.4 253.5L666.62 342.64" stroke="rgba(13, 32, 51, 1)" stroke-width="1.5"></path><path d="M676.4 253.5L796.66 411.43" stroke="rgba(13, 32, 51, 1)" stroke-width="1.5"></path><path d="M666.62 342.64L666.62 342.64" stroke="rgba(13, 32, 51, 1)" stroke-width="1.5"></path><path d="M666.62 342.64L796.66 411.43" stroke="rgba(13, 32, 51, 1)" stroke-width="1.5"></path><path d="M666.62 342.64L658.06 524.43" stroke="rgba(13, 32, 51, 1)" stroke-width="1.5"></path><path d="M658.06 524.43L658.06 524.43" stroke="rgba(13, 32, 51, 1)" stroke-width="1.5"></path><path d="M658.06 524.43L661.12 640.17" stroke="rgba(13, 32, 51, 1)" stroke-width="1.5"></path><path d="M658.06 524.43L821.41 538.23" stroke="rgba(13, 32, 51, 1)" stroke-width="1.5"></path><path d="M661.12 640.17L661.12 640.17" stroke="rgba(13, 32, 51, 1)" stroke-width="1.5"></path><path d="M796.66 411.43L796.66 411.43" stroke="rgba(13, 32, 51, 1)" stroke-width="1.5"></path><path d="M796.66 411.43L821.41 538.23" stroke="rgba(13, 32, 51, 1)" stroke-width="1.5"></path><path d="M796.66 411.43L658.06 524.43" stroke="rgba(13, 32, 51, 1)" stroke-width="1.5"></path><path d="M796.66 411.43L993.35 356.71" stroke="rgba(13, 32, 51, 1)" stroke-width="1.5"></path><path d="M796.66 411.43L1007.74 555.61" stroke="rgba(13, 32, 51, 1)" stroke-width="1.5"></path><path d="M821.41 538.23L821.41 538.23" stroke="rgba(13, 32, 51, 1)" stroke-width="1.5"></path><path d="M821.41 538.23L826.15 667.49" stroke="rgba(13, 32, 51, 1)" stroke-width="1.5"></path><path d="M821.41 538.23L1007.74 555.61" stroke="rgba(13, 32, 51, 1)" stroke-width="1.5"></path><path d="M821.41 538.23L661.12 640.17" stroke="rgba(13, 32, 51, 1)" stroke-width="1.5"></path><path d="M821.41 538.23L981.59 684.28" stroke="rgba(13, 32, 51, 1)" stroke-width="1.5"></path><path d="M826.15 667.49L826.15 667.49" stroke="rgba(13, 32, 51, 1)" stroke-width="1.5"></path><path d="M826.15 667.49L981.59 684.28" stroke="rgba(13, 32, 51, 1)" stroke-width="1.5"></path><path d="M1009.81 -52.6L1009.81 -52.6" stroke="rgba(13, 32, 51, 1)" stroke-width="1.5"></path><path d="M1009.81 -52.6L1144.66 -85.36" stroke="rgba(13, 32, 51, 1)" stroke-width="1.5"></path><path d="M1009.81 -52.6L993.14 108.21" stroke="rgba(13, 32, 51, 1)" stroke-width="1.5"></path><path d="M1009.81 -52.6L1134.56 196.47" stroke="rgba(13, 32, 51, 1)" stroke-width="1.5"></path><path d="M993.14 108.21L993.14 108.21" stroke="rgba(13, 32, 51, 1)" stroke-width="1.5"></path><path d="M993.14 108.21L1134.56 196.47" stroke="rgba(13, 32, 51, 1)" stroke-width="1.5"></path><path d="M993.35 356.71L993.35 356.71" stroke="rgba(13, 32, 51, 1)" stroke-width="1.5"></path><path d="M993.35 356.71L1090.77 340.16" stroke="rgba(13, 32, 51, 1)" stroke-width="1.5"></path><path d="M993.35 356.71L1007.74 555.61" stroke="rgba(13, 32, 51, 1)" stroke-width="1.5"></path><path d="M993.35 356.71L1134.56 196.47" stroke="rgba(13, 32, 51, 1)" stroke-width="1.5"></path><path d="M1007.74 555.61L1007.74 555.61" stroke="rgba(13, 32, 51, 1)" stroke-width="1.5"></path><path d="M1007.74 555.61L1135.17 561.2" stroke="rgba(13, 32, 51, 1)" stroke-width="1.5"></path><path d="M1007.74 555.61L981.59 684.28" stroke="rgba(13, 32, 51, 1)" stroke-width="1.5"></path><path d="M1007.74 555.61L1107.81 658.81" stroke="rgba(13, 32, 51, 1)" stroke-width="1.5"></path><path d="M981.59 684.28L981.59 684.28" stroke="rgba(13, 32, 51, 1)" stroke-width="1.5"></path><path d="M981.59 684.28L1107.81 658.81" stroke="rgba(13, 32, 51, 1)" stroke-width="1.5"></path><path d="M1144.66 -85.36L1144.66 -85.36" stroke="rgba(13, 32, 51, 1)" stroke-width="1.5"></path><path d="M1144.66 -85.36L1290.57 -62.8" stroke="rgba(13, 32, 51, 1)" stroke-width="1.5"></path><path d="M1144.66 -85.36L1268.65 71.6" stroke="rgba(13, 32, 51, 1)" stroke-width="1.5"></path><path d="M1144.66 -85.36L993.14 108.21" stroke="rgba(13, 32, 51, 1)" stroke-width="1.5"></path><path d="M1144.66 -85.36L1134.56 196.47" stroke="rgba(13, 32, 51, 1)" stroke-width="1.5"></path><path d="M1134.56 196.47L1134.56 196.47" stroke="rgba(13, 32, 51, 1)" stroke-width="1.5"></path><path d="M1134.56 196.47L1090.77 340.16" stroke="rgba(13, 32, 51, 1)" stroke-width="1.5"></path><path d="M1134.56 196.47L1286.58 193.92" stroke="rgba(13, 32, 51, 1)" stroke-width="1.5"></path><path d="M1090.77 340.16L1090.77 340.16" stroke="rgba(13, 32, 51, 1)" stroke-width="1.5"></path><path d="M1090.77 340.16L1237.8 489.41" stroke="rgba(13, 32, 51, 1)" stroke-width="1.5"></path><path d="M1135.17 561.2L1135.17 561.2" stroke="rgba(13, 32, 51, 1)" stroke-width="1.5"></path><path d="M1135.17 561.2L1107.81 658.81" stroke="rgba(13, 32, 51, 1)" stroke-width="1.5"></path><path d="M1135.17 561.2L1237.8 489.41" stroke="rgba(13, 32, 51, 1)" stroke-width="1.5"></path><path d="M1135.17 561.2L1286.32 661.58" stroke="rgba(13, 32, 51, 1)" stroke-width="1.5"></path><path d="M1135.17 561.2L981.59 684.28" stroke="rgba(13, 32, 51, 1)" stroke-width="1.5"></path><path d="M1135.17 561.2L1292.61 409.44" stroke="rgba(13, 32, 51, 1)" stroke-width="1.5"></path><path d="M1107.81 658.81L1107.81 658.81" stroke="rgba(13, 32, 51, 1)" stroke-width="1.5"></path><path d="M1107.81 658.81L1286.32 661.58" stroke="rgba(13, 32, 51, 1)" stroke-width="1.5"></path><path d="M1107.81 658.81L1237.8 489.41" stroke="rgba(13, 32, 51, 1)" stroke-width="1.5"></path><path d="M1107.81 658.81L826.15 667.49" stroke="rgba(13, 32, 51, 1)" stroke-width="1.5"></path><path d="M1290.57 -62.8L1290.57 -62.8" stroke="rgba(13, 32, 51, 1)" stroke-width="1.5"></path><path d="M1290.57 -62.8L1268.65 71.6" stroke="rgba(13, 32, 51, 1)" stroke-width="1.5"></path><path d="M1290.57 -62.8L1436.55 -50.98" stroke="rgba(13, 32, 51, 1)" stroke-width="1.5"></path><path d="M1290.57 -62.8L1433.31 109.94" stroke="rgba(13, 32, 51, 1)" stroke-width="1.5"></path><path d="M1268.65 71.6L1268.65 71.6" stroke="rgba(13, 32, 51, 1)" stroke-width="1.5"></path><path d="M1268.65 71.6L1286.58 193.92" stroke="rgba(13, 32, 51, 1)" stroke-width="1.5"></path><path d="M1268.65 71.6L1433.31 109.94" stroke="rgba(13, 32, 51, 1)" stroke-width="1.5"></path><path d="M1286.58 193.92L1286.58 193.92" stroke="rgba(13, 32, 51, 1)" stroke-width="1.5"></path><path d="M1286.58 193.92L1397.25 214.77" stroke="rgba(13, 32, 51, 1)" stroke-width="1.5"></path><path d="M1292.61 409.44L1292.61 409.44" stroke="rgba(13, 32, 51, 1)" stroke-width="1.5"></path><path d="M1292.61 409.44L1237.8 489.41" stroke="rgba(13, 32, 51, 1)" stroke-width="1.5"></path><path d="M1292.61 409.44L1396.08 348.46" stroke="rgba(13, 32, 51, 1)" stroke-width="1.5"></path><path d="M1292.61 409.44L1411.86 522.53" stroke="rgba(13, 32, 51, 1)" stroke-width="1.5"></path><path d="M1292.61 409.44L1090.77 340.16" stroke="rgba(13, 32, 51, 1)" stroke-width="1.5"></path><path d="M1292.61 409.44L1286.58 193.92" stroke="rgba(13, 32, 51, 1)" stroke-width="1.5"></path><path d="M1237.8 489.41L1237.8 489.41" stroke="rgba(13, 32, 51, 1)" stroke-width="1.5"></path><path d="M1286.32 661.58L1286.32 661.58" stroke="rgba(13, 32, 51, 1)" stroke-width="1.5"></path><path d="M1286.32 661.58L1446.92 650.37" stroke="rgba(13, 32, 51, 1)" stroke-width="1.5"></path><path d="M1286.32 661.58L1237.8 489.41" stroke="rgba(13, 32, 51, 1)" stroke-width="1.5"></path><path d="M1436.55 -50.98L1436.55 -50.98" stroke="rgba(13, 32, 51, 1)" stroke-width="1.5"></path><path d="M1436.55 -50.98L1539.54 -87.23" stroke="rgba(13, 32, 51, 1)" stroke-width="1.5"></path><path d="M1433.31 109.94L1433.31 109.94" stroke="rgba(13, 32, 51, 1)" stroke-width="1.5"></path><path d="M1433.31 109.94L1397.25 214.77" stroke="rgba(13, 32, 51, 1)" stroke-width="1.5"></path><path d="M1433.31 109.94L1549.13 105.09" stroke="rgba(13, 32, 51, 1)" stroke-width="1.5"></path><path d="M1433.31 109.94L1436.55 -50.98" stroke="rgba(13, 32, 51, 1)" stroke-width="1.5"></path><path d="M1397.25 214.77L1397.25 214.77" stroke="rgba(13, 32, 51, 1)" stroke-width="1.5"></path><path d="M1397.25 214.77L1396.08 348.46" stroke="rgba(13, 32, 51, 1)" stroke-width="1.5"></path><path d="M1397.25 214.77L1549.13 105.09" stroke="rgba(13, 32, 51, 1)" stroke-width="1.5"></path><path d="M1397.25 214.77L1583.65 242.96" stroke="rgba(13, 32, 51, 1)" stroke-width="1.5"></path><path d="M1396.08 348.46L1396.08 348.46" stroke="rgba(13, 32, 51, 1)" stroke-width="1.5"></path><path d="M1396.08 348.46L1411.86 522.53" stroke="rgba(13, 32, 51, 1)" stroke-width="1.5"></path><path d="M1396.08 348.46L1286.58 193.92" stroke="rgba(13, 32, 51, 1)" stroke-width="1.5"></path><path d="M1411.86 522.53L1411.86 522.53" stroke="rgba(13, 32, 51, 1)" stroke-width="1.5"></path><path d="M1411.86 522.53L1446.92 650.37" stroke="rgba(13, 32, 51, 1)" stroke-width="1.5"></path><path d="M1446.92 650.37L1446.92 650.37" stroke="rgba(13, 32, 51, 1)" stroke-width="1.5"></path><path d="M1446.92 650.37L1605.67 650.78" stroke="rgba(13, 32, 51, 1)" stroke-width="1.5"></path><path d="M1539.54 -87.23L1539.54 -87.23" stroke="rgba(13, 32, 51, 1)" stroke-width="1.5"></path><path d="M1539.54 -87.23L1549.13 105.09" stroke="rgba(13, 32, 51, 1)" stroke-width="1.5"></path><path d="M1539.54 -87.23L1433.31 109.94" stroke="rgba(13, 32, 51, 1)" stroke-width="1.5"></path><path d="M1549.13 105.09L1549.13 105.09" stroke="rgba(13, 32, 51, 1)" stroke-width="1.5"></path><path d="M1549.13 105.09L1583.65 242.96" stroke="rgba(13, 32, 51, 1)" stroke-width="1.5"></path><path d="M1549.13 105.09L1436.55 -50.98" stroke="rgba(13, 32, 51, 1)" stroke-width="1.5"></path><path d="M1583.65 242.96L1583.65 242.96" stroke="rgba(13, 32, 51, 1)" stroke-width="1.5"></path><path d="M1604 500.46L1604 500.46" stroke="rgba(13, 32, 51, 1)" stroke-width="1.5"></path><path d="M1604 500.46L1605.67 650.78" stroke="rgba(13, 32, 51, 1)" stroke-width="1.5"></path><path d="M1604 500.46L1411.86 522.53" stroke="rgba(13, 32, 51, 1)" stroke-width="1.5"></path><path d="M1604 500.46L1446.92 650.37" stroke="rgba(13, 32, 51, 1)" stroke-width="1.5"></path><path d="M1604 500.46L1396.08 348.46" stroke="rgba(13, 32, 51, 1)" stroke-width="1.5"></path><path d="M1605.67 650.78L1605.67 650.78" stroke="rgba(13, 32, 51, 1)" stroke-width="1.5"></path><circle r="5" cx="-47.55" cy="406.75" fill="rgba(13, 32, 51, 1)"></circle><circle r="5" cx="-83.3" cy="518.33" fill="rgba(13, 32, 51, 1)"></circle><circle r="5" cx="-109.19" cy="709.31" fill="rgba(13, 32, 51, 1)"></circle><circle r="5" cx="82.18" cy="388.06" fill="rgba(13, 32, 51, 1)"></circle><circle r="5" cx="83.28" cy="501.68" fill="rgba(13, 32, 51, 1)"></circle><circle r="5" cx="89.75" cy="657.51" fill="rgba(13, 32, 51, 1)"></circle><circle r="5" cx="239.39" cy="340.55" fill="rgba(13, 32, 51, 1)"></circle><circle r="5" cx="229.12" cy="560.83" fill="rgba(13, 32, 51, 1)"></circle><circle r="5" cx="246.59" cy="674" fill="rgba(13, 32, 51, 1)"></circle><circle r="5" cx="347.61" cy="348.37" fill="rgba(13, 32, 51, 1)"></circle><circle r="5" cx="339.95" cy="540.93" fill="rgba(13, 32, 51, 1)"></circle><circle r="5" cx="338.89" cy="646.31" fill="rgba(13, 32, 51, 1)"></circle><circle r="5" cx="495.61" cy="388.68" fill="rgba(13, 32, 51, 1)"></circle><circle r="5" cx="560.54" cy="552.48" fill="rgba(13, 32, 51, 1)"></circle><circle r="5" cx="547.76" cy="707.79" fill="rgba(13, 32, 51, 1)"></circle><circle r="5" cx="676.4" cy="253.5" fill="rgba(13, 32, 51, 1)"></circle><circle r="5" cx="666.62" cy="342.64" fill="rgba(13, 32, 51, 1)"></circle><circle r="5" cx="658.06" cy="524.43" fill="rgba(13, 32, 51, 1)"></circle><circle r="5" cx="661.12" cy="640.17" fill="rgba(13, 32, 51, 1)"></circle><circle r="5" cx="796.66" cy="411.43" fill="rgba(13, 32, 51, 1)"></circle><circle r="5" cx="821.41" cy="538.23" fill="rgba(13, 32, 51, 1)"></circle><circle r="5" cx="826.15" cy="667.49" fill="rgba(13, 32, 51, 1)"></circle><circle r="5" cx="1009.81" cy="-52.6" fill="rgba(13, 32, 51, 1)"></circle><circle r="5" cx="993.14" cy="108.21" fill="rgba(13, 32, 51, 1)"></circle><circle r="5" cx="993.35" cy="356.71" fill="rgba(13, 32, 51, 1)"></circle><circle r="5" cx="1007.74" cy="555.61" fill="rgba(13, 32, 51, 1)"></circle><circle r="5" cx="981.59" cy="684.28" fill="rgba(13, 32, 51, 1)"></circle><circle r="5" cx="1144.66" cy="-85.36" fill="rgba(13, 32, 51, 1)"></circle><circle r="5" cx="1134.56" cy="196.47" fill="rgba(13, 32, 51, 1)"></circle><circle r="5" cx="1090.77" cy="340.16" fill="rgba(13, 32, 51, 1)"></circle><circle r="5" cx="1135.17" cy="561.2" fill="rgba(13, 32, 51, 1)"></circle><circle r="5" cx="1107.81" cy="658.81" fill="rgba(13, 32, 51, 1)"></circle><circle r="5" cx="1290.57" cy="-62.8" fill="rgba(13, 32, 51, 1)"></circle><circle r="5" cx="1268.65" cy="71.6" fill="rgba(13, 32, 51, 1)"></circle><circle r="5" cx="1286.58" cy="193.92" fill="rgba(13, 32, 51, 1)"></circle><circle r="5" cx="1292.61" cy="409.44" fill="rgba(13, 32, 51, 1)"></circle><circle r="5" cx="1237.8" cy="489.41" fill="rgba(13, 32, 51, 1)"></circle><circle r="5" cx="1286.32" cy="661.58" fill="rgba(13, 32, 51, 1)"></circle><circle r="5" cx="1436.55" cy="-50.98" fill="rgba(13, 32, 51, 1)"></circle><circle r="5" cx="1433.31" cy="109.94" fill="rgba(13, 32, 51, 1)"></circle><circle r="5" cx="1397.25" cy="214.77" fill="rgba(13, 32, 51, 1)"></circle><circle r="5" cx="1396.08" cy="348.46" fill="rgba(13, 32, 51, 1)"></circle><circle r="5" cx="1411.86" cy="522.53" fill="rgba(13, 32, 51, 1)"></circle><circle r="5" cx="1446.92" cy="650.37" fill="rgba(13, 32, 51, 1)"></circle><circle r="5" cx="1539.54" cy="-87.23" fill="rgba(13, 32, 51, 1)"></circle><circle r="5" cx="1549.13" cy="105.09" fill="rgba(13, 32, 51, 1)"></circle><circle r="5" cx="1583.65" cy="242.96" fill="rgba(13, 32, 51, 1)"></circle><circle r="5" cx="1604" cy="500.46" fill="rgba(13, 32, 51, 1)"></circle><circle r="5" cx="1605.67" cy="650.78" fill="rgba(13, 32, 51, 1)"></circle><path d="M682.48 382.77L682.48 382.77" stroke="hsl(73.80000000000001, 100%, 64.5%)" stroke-width="1.5"></path><path d="M682.48 382.77L803.77 347.25" stroke="hsl(73.80000000000001, 100%, 64.5%)" stroke-width="1.5"></path><path d="M682.48 382.77L645.14 518.73" stroke="hsl(73.80000000000001, 100%, 64.5%)" stroke-width="1.5"></path><path d="M988.27 659.77L988.27 659.77" stroke="hsl(73.80000000000001, 100%, 64.5%)" stroke-width="1.5"></path><path d="M988.27 659.77L1100.89 656.31" stroke="hsl(73.80000000000001, 100%, 64.5%)" stroke-width="1.5"></path><path d="M988.27 659.77L967.75 529.19" stroke="hsl(73.80000000000001, 100%, 64.5%)" stroke-width="1.5"></path><path d="M988.27 659.77L810.48 675.64" stroke="hsl(73.80000000000001, 100%, 64.5%)" stroke-width="1.5"></path><path d="M988.27 659.77L1102.56 522.18" stroke="hsl(73.80000000000001, 100%, 64.5%)" stroke-width="1.5"></path><path d="M988.27 659.77L832.01 529.54" stroke="hsl(73.80000000000001, 100%, 64.5%)" stroke-width="1.5"></path><path d="M1404 217.15L1404 217.15" stroke="hsl(73.80000000000001, 100%, 64.5%)" stroke-width="1.5"></path><path d="M1404 217.15L1270.91 236.66" stroke="hsl(73.80000000000001, 100%, 64.5%)" stroke-width="1.5"></path><path d="M1404 217.15L1462.17 348.91" stroke="hsl(73.80000000000001, 100%, 64.5%)" stroke-width="1.5"></path><path d="M1558.49 90.82L1558.49 90.82" stroke="hsl(73.80000000000001, 100%, 64.5%)" stroke-width="1.5"></path><path d="M1558.49 90.82L1442.93 47.91" stroke="hsl(73.80000000000001, 100%, 64.5%)" stroke-width="1.5"></path><path d="M1558.49 90.82L1596.54 254.66" stroke="hsl(73.80000000000001, 100%, 64.5%)" stroke-width="1.5"></path><path d="M1558.49 90.82L1555.35 -86.1" stroke="hsl(73.80000000000001, 100%, 64.5%)" stroke-width="1.5"></path><path d="M1577.82 502.31L1577.82 502.31" stroke="hsl(73.80000000000001, 100%, 64.5%)" stroke-width="1.5"></path><path d="M1577.82 502.31L1609.41 346.71" stroke="hsl(73.80000000000001, 100%, 64.5%)" stroke-width="1.5"></path><path d="M1577.82 502.31L1605.07 667.2" stroke="hsl(73.80000000000001, 100%, 64.5%)" stroke-width="1.5"></path><path d="M1577.82 502.31L1389.02 529.62" stroke="hsl(73.80000000000001, 100%, 64.5%)" stroke-width="1.5"></path><path d="M1577.82 502.31L1462.17 348.91" stroke="hsl(73.80000000000001, 100%, 64.5%)" stroke-width="1.5"></path><path d="M1577.82 502.31L1390.67 640.94" stroke="hsl(73.80000000000001, 100%, 64.5%)" stroke-width="1.5"></path><path d="M1577.82 502.31L1596.54 254.66" stroke="hsl(73.80000000000001, 100%, 64.5%)" stroke-width="1.5"></path><path d="M-95.91 535.89L-95.91 535.89" stroke="hsl(73.80000000000001, 100%, 64.5%)" stroke-width="1.5"></path><path d="M-95.91 535.89L72.09 544.42" stroke="hsl(73.80000000000001, 100%, 64.5%)" stroke-width="1.5"></path><path d="M-95.91 535.89L57.99 667.05" stroke="hsl(73.80000000000001, 100%, 64.5%)" stroke-width="1.5"></path><path d="M72.09 544.42L72.09 544.42" stroke="hsl(73.80000000000001, 100%, 64.5%)" stroke-width="1.5"></path><path d="M72.09 544.42L57.99 667.05" stroke="hsl(73.80000000000001, 100%, 64.5%)" stroke-width="1.5"></path><path d="M72.09 544.42L214.02 502.15" stroke="hsl(73.80000000000001, 100%, 64.5%)" stroke-width="1.5"></path><path d="M72.09 544.42L365.13 541.85" stroke="hsl(73.80000000000001, 100%, 64.5%)" stroke-width="1.5"></path><path d="M72.09 544.42L410.25 651.73" stroke="hsl(73.80000000000001, 100%, 64.5%)" stroke-width="1.5"></path><path d="M72.09 544.42L505.91 696.11" stroke="hsl(73.80000000000001, 100%, 64.5%)" stroke-width="1.5"></path><path d="M57.99 667.05L57.99 667.05" stroke="hsl(73.80000000000001, 100%, 64.5%)" stroke-width="1.5"></path><path d="M57.99 667.05L214.02 502.15" stroke="hsl(73.80000000000001, 100%, 64.5%)" stroke-width="1.5"></path><path d="M214.02 502.15L214.02 502.15" stroke="hsl(73.80000000000001, 100%, 64.5%)" stroke-width="1.5"></path><path d="M214.02 502.15L365.13 541.85" stroke="hsl(73.80000000000001, 100%, 64.5%)" stroke-width="1.5"></path><path d="M365.13 541.85L365.13 541.85" stroke="hsl(73.80000000000001, 100%, 64.5%)" stroke-width="1.5"></path><path d="M365.13 541.85L410.25 651.73" stroke="hsl(73.80000000000001, 100%, 64.5%)" stroke-width="1.5"></path><path d="M365.13 541.85L558.49 504.76" stroke="hsl(73.80000000000001, 100%, 64.5%)" stroke-width="1.5"></path><path d="M365.13 541.85L505.91 696.11" stroke="hsl(73.80000000000001, 100%, 64.5%)" stroke-width="1.5"></path><path d="M365.13 541.85L645.14 518.73" stroke="hsl(73.80000000000001, 100%, 64.5%)" stroke-width="1.5"></path><path d="M410.25 651.73L410.25 651.73" stroke="hsl(73.80000000000001, 100%, 64.5%)" stroke-width="1.5"></path><path d="M410.25 651.73L505.91 696.11" stroke="hsl(73.80000000000001, 100%, 64.5%)" stroke-width="1.5"></path><path d="M558.49 504.76L558.49 504.76" stroke="hsl(73.80000000000001, 100%, 64.5%)" stroke-width="1.5"></path><path d="M558.49 504.76L645.14 518.73" stroke="hsl(73.80000000000001, 100%, 64.5%)" stroke-width="1.5"></path><path d="M558.49 504.76L659.55 644.45" stroke="hsl(73.80000000000001, 100%, 64.5%)" stroke-width="1.5"></path><path d="M558.49 504.76L682.48 382.77" stroke="hsl(73.80000000000001, 100%, 64.5%)" stroke-width="1.5"></path><path d="M558.49 504.76L505.91 696.11" stroke="hsl(73.80000000000001, 100%, 64.5%)" stroke-width="1.5"></path><path d="M558.49 504.76L410.25 651.73" stroke="hsl(73.80000000000001, 100%, 64.5%)" stroke-width="1.5"></path><path d="M505.91 696.11L505.91 696.11" stroke="hsl(73.80000000000001, 100%, 64.5%)" stroke-width="1.5"></path><path d="M505.91 696.11L659.55 644.45" stroke="hsl(73.80000000000001, 100%, 64.5%)" stroke-width="1.5"></path><path d="M645.14 518.73L645.14 518.73" stroke="hsl(73.80000000000001, 100%, 64.5%)" stroke-width="1.5"></path><path d="M645.14 518.73L659.55 644.45" stroke="hsl(73.80000000000001, 100%, 64.5%)" stroke-width="1.5"></path><path d="M645.14 518.73L832.01 529.54" stroke="hsl(73.80000000000001, 100%, 64.5%)" stroke-width="1.5"></path><path d="M645.14 518.73L505.91 696.11" stroke="hsl(73.80000000000001, 100%, 64.5%)" stroke-width="1.5"></path><path d="M659.55 644.45L659.55 644.45" stroke="hsl(73.80000000000001, 100%, 64.5%)" stroke-width="1.5"></path><path d="M659.55 644.45L810.48 675.64" stroke="hsl(73.80000000000001, 100%, 64.5%)" stroke-width="1.5"></path><path d="M659.55 644.45L832.01 529.54" stroke="hsl(73.80000000000001, 100%, 64.5%)" stroke-width="1.5"></path><path d="M659.55 644.45L410.25 651.73" stroke="hsl(73.80000000000001, 100%, 64.5%)" stroke-width="1.5"></path><path d="M803.77 347.25L803.77 347.25" stroke="hsl(73.80000000000001, 100%, 64.5%)" stroke-width="1.5"></path><path d="M832.01 529.54L832.01 529.54" stroke="hsl(73.80000000000001, 100%, 64.5%)" stroke-width="1.5"></path><path d="M832.01 529.54L967.75 529.19" stroke="hsl(73.80000000000001, 100%, 64.5%)" stroke-width="1.5"></path><path d="M832.01 529.54L810.48 675.64" stroke="hsl(73.80000000000001, 100%, 64.5%)" stroke-width="1.5"></path><path d="M810.48 675.64L810.48 675.64" stroke="hsl(73.80000000000001, 100%, 64.5%)" stroke-width="1.5"></path><path d="M810.48 675.64L967.75 529.19" stroke="hsl(73.80000000000001, 100%, 64.5%)" stroke-width="1.5"></path><path d="M810.48 675.64L645.14 518.73" stroke="hsl(73.80000000000001, 100%, 64.5%)" stroke-width="1.5"></path><path d="M967.75 529.19L967.75 529.19" stroke="hsl(73.80000000000001, 100%, 64.5%)" stroke-width="1.5"></path><path d="M967.75 529.19L1102.56 522.18" stroke="hsl(73.80000000000001, 100%, 64.5%)" stroke-width="1.5"></path><path d="M967.75 529.19L1100.89 656.31" stroke="hsl(73.80000000000001, 100%, 64.5%)" stroke-width="1.5"></path><path d="M1087.91 211.22L1087.91 211.22" stroke="hsl(73.80000000000001, 100%, 64.5%)" stroke-width="1.5"></path><path d="M1087.91 211.22L1144.3 348.97" stroke="hsl(73.80000000000001, 100%, 64.5%)" stroke-width="1.5"></path><path d="M1087.91 211.22L1270.91 236.66" stroke="hsl(73.80000000000001, 100%, 64.5%)" stroke-width="1.5"></path><path d="M1087.91 211.22L1271.29 353.16" stroke="hsl(73.80000000000001, 100%, 64.5%)" stroke-width="1.5"></path><path d="M1087.91 211.22L1295.25 59.98" stroke="hsl(73.80000000000001, 100%, 64.5%)" stroke-width="1.5"></path><path d="M1144.3 348.97L1144.3 348.97" stroke="hsl(73.80000000000001, 100%, 64.5%)" stroke-width="1.5"></path><path d="M1144.3 348.97L1271.29 353.16" stroke="hsl(73.80000000000001, 100%, 64.5%)" stroke-width="1.5"></path><path d="M1144.3 348.97L1270.91 236.66" stroke="hsl(73.80000000000001, 100%, 64.5%)" stroke-width="1.5"></path><path d="M1144.3 348.97L1102.56 522.18" stroke="hsl(73.80000000000001, 100%, 64.5%)" stroke-width="1.5"></path><path d="M1102.56 522.18L1102.56 522.18" stroke="hsl(73.80000000000001, 100%, 64.5%)" stroke-width="1.5"></path><path d="M1102.56 522.18L1100.89 656.31" stroke="hsl(73.80000000000001, 100%, 64.5%)" stroke-width="1.5"></path><path d="M1100.89 656.31L1100.89 656.31" stroke="hsl(73.80000000000001, 100%, 64.5%)" stroke-width="1.5"></path><path d="M1257.48 -70.09L1257.48 -70.09" stroke="hsl(73.80000000000001, 100%, 64.5%)" stroke-width="1.5"></path><path d="M1257.48 -70.09L1295.25 59.98" stroke="hsl(73.80000000000001, 100%, 64.5%)" stroke-width="1.5"></path><path d="M1257.48 -70.09L1453.47 -86.9" stroke="hsl(73.80000000000001, 100%, 64.5%)" stroke-width="1.5"></path><path d="M1257.48 -70.09L1442.93 47.91" stroke="hsl(73.80000000000001, 100%, 64.5%)" stroke-width="1.5"></path><path d="M1257.48 -70.09L1555.35 -86.1" stroke="hsl(73.80000000000001, 100%, 64.5%)" stroke-width="1.5"></path><path d="M1257.48 -70.09L1270.91 236.66" stroke="hsl(73.80000000000001, 100%, 64.5%)" stroke-width="1.5"></path><path d="M1257.48 -70.09L1404 217.15" stroke="hsl(73.80000000000001, 100%, 64.5%)" stroke-width="1.5"></path><path d="M1295.25 59.98L1295.25 59.98" stroke="hsl(73.80000000000001, 100%, 64.5%)" stroke-width="1.5"></path><path d="M1295.25 59.98L1442.93 47.91" stroke="hsl(73.80000000000001, 100%, 64.5%)" stroke-width="1.5"></path><path d="M1295.25 59.98L1270.91 236.66" stroke="hsl(73.80000000000001, 100%, 64.5%)" stroke-width="1.5"></path><path d="M1295.25 59.98L1404 217.15" stroke="hsl(73.80000000000001, 100%, 64.5%)" stroke-width="1.5"></path><path d="M1295.25 59.98L1453.47 -86.9" stroke="hsl(73.80000000000001, 100%, 64.5%)" stroke-width="1.5"></path><path d="M1270.91 236.66L1270.91 236.66" stroke="hsl(73.80000000000001, 100%, 64.5%)" stroke-width="1.5"></path><path d="M1270.91 236.66L1271.29 353.16" stroke="hsl(73.80000000000001, 100%, 64.5%)" stroke-width="1.5"></path><path d="M1271.29 353.16L1271.29 353.16" stroke="hsl(73.80000000000001, 100%, 64.5%)" stroke-width="1.5"></path><path d="M1271.29 353.16L1262.22 490.87" stroke="hsl(73.80000000000001, 100%, 64.5%)" stroke-width="1.5"></path><path d="M1271.29 353.16L1404 217.15" stroke="hsl(73.80000000000001, 100%, 64.5%)" stroke-width="1.5"></path><path d="M1271.29 353.16L1462.17 348.91" stroke="hsl(73.80000000000001, 100%, 64.5%)" stroke-width="1.5"></path><path d="M1271.29 353.16L1389.02 529.62" stroke="hsl(73.80000000000001, 100%, 64.5%)" stroke-width="1.5"></path><path d="M1262.22 490.87L1262.22 490.87" stroke="hsl(73.80000000000001, 100%, 64.5%)" stroke-width="1.5"></path><path d="M1262.22 490.87L1389.02 529.62" stroke="hsl(73.80000000000001, 100%, 64.5%)" stroke-width="1.5"></path><path d="M1262.22 490.87L1102.56 522.18" stroke="hsl(73.80000000000001, 100%, 64.5%)" stroke-width="1.5"></path><path d="M1262.22 490.87L1144.3 348.97" stroke="hsl(73.80000000000001, 100%, 64.5%)" stroke-width="1.5"></path><path d="M1255.24 707.05L1255.24 707.05" stroke="hsl(73.80000000000001, 100%, 64.5%)" stroke-width="1.5"></path><path d="M1255.24 707.05L1390.67 640.94" stroke="hsl(73.80000000000001, 100%, 64.5%)" stroke-width="1.5"></path><path d="M1255.24 707.05L1100.89 656.31" stroke="hsl(73.80000000000001, 100%, 64.5%)" stroke-width="1.5"></path><path d="M1255.24 707.05L1262.22 490.87" stroke="hsl(73.80000000000001, 100%, 64.5%)" stroke-width="1.5"></path><path d="M1255.24 707.05L1389.02 529.62" stroke="hsl(73.80000000000001, 100%, 64.5%)" stroke-width="1.5"></path><path d="M1255.24 707.05L1102.56 522.18" stroke="hsl(73.80000000000001, 100%, 64.5%)" stroke-width="1.5"></path><path d="M1255.24 707.05L988.27 659.77" stroke="hsl(73.80000000000001, 100%, 64.5%)" stroke-width="1.5"></path><path d="M1453.47 -86.9L1453.47 -86.9" stroke="hsl(73.80000000000001, 100%, 64.5%)" stroke-width="1.5"></path><path d="M1453.47 -86.9L1555.35 -86.1" stroke="hsl(73.80000000000001, 100%, 64.5%)" stroke-width="1.5"></path><path d="M1453.47 -86.9L1442.93 47.91" stroke="hsl(73.80000000000001, 100%, 64.5%)" stroke-width="1.5"></path><path d="M1453.47 -86.9L1558.49 90.82" stroke="hsl(73.80000000000001, 100%, 64.5%)" stroke-width="1.5"></path><path d="M1453.47 -86.9L1404 217.15" stroke="hsl(73.80000000000001, 100%, 64.5%)" stroke-width="1.5"></path><path d="M1442.93 47.91L1442.93 47.91" stroke="hsl(73.80000000000001, 100%, 64.5%)" stroke-width="1.5"></path><path d="M1462.17 348.91L1462.17 348.91" stroke="hsl(73.80000000000001, 100%, 64.5%)" stroke-width="1.5"></path><path d="M1462.17 348.91L1609.41 346.71" stroke="hsl(73.80000000000001, 100%, 64.5%)" stroke-width="1.5"></path><path d="M1462.17 348.91L1596.54 254.66" stroke="hsl(73.80000000000001, 100%, 64.5%)" stroke-width="1.5"></path><path d="M1389.02 529.62L1389.02 529.62" stroke="hsl(73.80000000000001, 100%, 64.5%)" stroke-width="1.5"></path><path d="M1389.02 529.62L1390.67 640.94" stroke="hsl(73.80000000000001, 100%, 64.5%)" stroke-width="1.5"></path><path d="M1389.02 529.62L1462.17 348.91" stroke="hsl(73.80000000000001, 100%, 64.5%)" stroke-width="1.5"></path><path d="M1390.67 640.94L1390.67 640.94" stroke="hsl(73.80000000000001, 100%, 64.5%)" stroke-width="1.5"></path><path d="M1390.67 640.94L1262.22 490.87" stroke="hsl(73.80000000000001, 100%, 64.5%)" stroke-width="1.5"></path><path d="M1390.67 640.94L1605.07 667.2" stroke="hsl(73.80000000000001, 100%, 64.5%)" stroke-width="1.5"></path><path d="M1390.67 640.94L1100.89 656.31" stroke="hsl(73.80000000000001, 100%, 64.5%)" stroke-width="1.5"></path><path d="M1555.35 -86.1L1555.35 -86.1" stroke="hsl(73.80000000000001, 100%, 64.5%)" stroke-width="1.5"></path><path d="M1555.35 -86.1L1442.93 47.91" stroke="hsl(73.80000000000001, 100%, 64.5%)" stroke-width="1.5"></path><path d="M1596.54 254.66L1596.54 254.66" stroke="hsl(73.80000000000001, 100%, 64.5%)" stroke-width="1.5"></path><path d="M1596.54 254.66L1609.41 346.71" stroke="hsl(73.80000000000001, 100%, 64.5%)" stroke-width="1.5"></path><path d="M1596.54 254.66L1404 217.15" stroke="hsl(73.80000000000001, 100%, 64.5%)" stroke-width="1.5"></path><path d="M1609.41 346.71L1609.41 346.71" stroke="hsl(73.80000000000001, 100%, 64.5%)" stroke-width="1.5"></path><path d="M1605.07 667.2L1605.07 667.2" stroke="hsl(73.80000000000001, 100%, 64.5%)" stroke-width="1.5"></path><path d="M1605.07 667.2L1389.02 529.62" stroke="hsl(73.80000000000001, 100%, 64.5%)" stroke-width="1.5"></path><path d="M1605.07 667.2L1609.41 346.71" stroke="hsl(73.80000000000001, 100%, 64.5%)" stroke-width="1.5"></path><path d="M1605.07 667.2L1462.17 348.91" stroke="hsl(73.80000000000001, 100%, 64.5%)" stroke-width="1.5"></path><circle r="25" cx="682.48" cy="382.77" fill="url(#SvgjsRadialGradient1009)"></circle><circle r="25" cx="988.27" cy="659.77" fill="url(#SvgjsRadialGradient1009)"></circle><circle r="25" cx="1404" cy="217.15" fill="url(#SvgjsRadialGradient1009)"></circle><circle r="25" cx="1558.49" cy="90.82" fill="url(#SvgjsRadialGradient1009)"></circle><circle r="25" cx="1577.82" cy="502.31" fill="url(#SvgjsRadialGradient1009)"></circle><circle r="5" cx="-95.91" cy="535.89" fill="#e1fe80"></circle><circle r="5" cx="72.09" cy="544.42" fill="#e1fe80"></circle><circle r="5" cx="57.99" cy="667.05" fill="#e1fe80"></circle><circle r="5" cx="214.02" cy="502.15" fill="#e1fe80"></circle><circle r="5" cx="365.13" cy="541.85" fill="#e1fe80"></circle><circle r="5" cx="410.25" cy="651.73" fill="#e1fe80"></circle><circle r="5" cx="558.49" cy="504.76" fill="#e1fe80"></circle><circle r="5" cx="505.91" cy="696.11" fill="#e1fe80"></circle><circle r="5" cx="645.14" cy="518.73" fill="#e1fe80"></circle><circle r="5" cx="659.55" cy="644.45" fill="#e1fe80"></circle><circle r="5" cx="803.77" cy="347.25" fill="#e1fe80"></circle><circle r="5" cx="832.01" cy="529.54" fill="#e1fe80"></circle><circle r="5" cx="810.48" cy="675.64" fill="#e1fe80"></circle><circle r="5" cx="967.75" cy="529.19" fill="#e1fe80"></circle><circle r="5" cx="1087.91" cy="211.22" fill="#e1fe80"></circle><circle r="5" cx="1144.3" cy="348.97" fill="#e1fe80"></circle><circle r="5" cx="1102.56" cy="522.18" fill="#e1fe80"></circle><circle r="5" cx="1100.89" cy="656.31" fill="#e1fe80"></circle><circle r="5" cx="1257.48" cy="-70.09" fill="#e1fe80"></circle><circle r="5" cx="1295.25" cy="59.98" fill="#e1fe80"></circle><circle r="5" cx="1270.91" cy="236.66" fill="#e1fe80"></circle><circle r="5" cx="1271.29" cy="353.16" fill="#e1fe80"></circle><circle r="5" cx="1262.22" cy="490.87" fill="#e1fe80"></circle><circle r="5" cx="1255.24" cy="707.05" fill="#e1fe80"></circle><circle r="5" cx="1453.47" cy="-86.9" fill="#e1fe80"></circle><circle r="5" cx="1442.93" cy="47.91" fill="#e1fe80"></circle><circle r="5" cx="1462.17" cy="348.91" fill="#e1fe80"></circle><circle r="5" cx="1389.02" cy="529.62" fill="#e1fe80"></circle><circle r="5" cx="1390.67" cy="640.94" fill="#e1fe80"></circle><circle r="5" cx="1555.35" cy="-86.1" fill="#e1fe80"></circle><circle r="5" cx="1596.54" cy="254.66" fill="#e1fe80"></circle><circle r="5" cx="1609.41" cy="346.71" fill="#e1fe80"></circle><circle r="5" cx="1605.07" cy="667.2" fill="#e1fe80"></circle></g><defs><mask id="SvgjsMask1008"><rect width="1440" height="560" fill="#ffffff"></rect></mask><radialGradient id="SvgjsRadialGradient1009"><stop stop-color="#ffffff" offset="0.1"></stop><stop stop-color="rgba(195, 253, 0, 1)" offset="0.2"></stop><stop stop-color="rgba(195, 253, 0, 0)" offset="1"></stop></radialGradient></defs></svg>