<svg xmlns="http://www.w3.org/2000/svg" version="1.1" xmlns:xlink="http://www.w3.org/1999/xlink" xmlns:svgjs="http://svgjs.com/svgjs" width="1440" height="560" preserveAspectRatio="none" viewBox="0 0 1440 560"><g mask="url(&quot;#SvgjsMask1138&quot;)" fill="none"><rect width="1440" height="560" x="0" y="0" fill="rgba(51, 51, 51, 1)"></rect><path d="M -33.96678850326646,66 C 110.03,140.8 398.03,418.2 686.0332114967335,440 C 974.03,461.8 1118.03,185 1406.0332114967337,175 C 1694.03,165 2119.24,387.4 2126.0332114967337,390 C 2132.83,392.6 1577.21,228.4 1440,188" stroke="rgba(195, 253, 0, 1)" stroke-width="2"></path><path d="M -1161.9744628817803,485 C -1017.97,430.2 -729.97,218.6 -441.97446288178025,211 C -153.97,203.4 -9.97,462.2 278.02553711821975,447 C 566.03,431.8 765.63,137.2 998.0255371182197,135 C 1230.42,132.8 1351.61,375.8 1440,436" stroke="rgba(195, 253, 0, 1)" stroke-width="2"></path><path d="M -1185.7370748729536,94 C -1041.74,165.8 -753.74,461.4 -465.7370748729535,453 C -177.74,444.6 -33.74,73.8 254.26292512704651,52 C 542.26,30.2 737.12,300.2 974.2629251270465,344 C 1211.41,387.8 1346.85,285.6 1440,271" stroke="rgba(195, 253, 0, 1)" stroke-width="2"></path><path d="M -1084.8499091205215,108 C -940.85,145.8 -652.85,277.2 -364.84990912052143,297 C -76.85,316.8 67.15,207.4 355.15009087947857,207 C 643.15,206.6 858.18,320.4 1075.1500908794785,295 C 1292.12,269.6 1367.03,123 1440,80" stroke="rgba(195, 253, 0, 1)" stroke-width="2"></path></g><defs><mask id="SvgjsMask1138"><rect width="1440" height="560" fill="#ffffff"></rect></mask></defs></svg>